# xmcd
#
# Track frame offsets:
#	150
#	22353
#	40056
#	50976
#	62970
#	73938
#	89373
#	100089
#	113622
#	125760
#	140355
#	150138
#	160149
#
# Disc length: 2273 seconds
#
# Revision: 2
# Processed by: cddbd v1.5.2PL0 Copyright (c) Steve Scherf et al.
# Submitted via: EasyCDDAExtractor 16.0.1.1
#
DISCID=b608df0d
DTITLE=Pilgrim
DYEAR=2005
DGENRE=Country
TTITLE0=Stupid Song
TTITLE1=Cry cry cry
TTITLE2=Tiger by the tail
TTITLE3=As you walk by my side
TTITLE4=Honky tonk merry go round
TTITLE5=Nighttrain
TTITLE6=Single girl, married girl
TTITLE7=If i could only win your love
TTITLE8=I love you honey
TTITLE9=Two-timing darling
TTITLE10=Love bug
TTITLE11=Oh lord, if you're out there
TTITLE12=Hoping that you're hoping
EXTD=Produced by Tomas Larsson and Tommy Sahlin. www.dustyrecords.se
EXTT0=
EXTT1=
EXTT2=
EXTT3=
EXTT4=
EXTT5=
EXTT6=
EXTT7=
EXTT8=
EXTT9=
EXTT10=
EXTT11=
EXTT12=
PLAYORDER=
